<svg width="228" height="18" viewBox="0 0 228 18" fill="none" xmlns="http://www.w3.org/2000/svg">
<path d="M12.2781 17.1114H11.3887C2.03913 17.1114 0.585707 11.8834 0.585707 9.01993V8.39083C0.585707 5.4623 1.84389 0.407871 11.3887 0.407871H12.2781C21.6278 0.407871 23.0812 4.87659 23.0812 6.76387V7.00249H17.723C17.5929 6.56864 16.9421 4.31258 11.8226 4.31258C6.98509 4.31258 5.87876 6.48186 5.87876 8.4993V8.75961C5.87876 10.6686 7.15864 13.1849 11.866 13.1849C17.094 13.1849 17.6146 10.6903 17.7447 10.3215H23.1029V10.5601C23.1029 12.5992 21.4976 17.1114 12.2781 17.1114ZM24.6649 16.8293V0.689878H44.7308V16.8293H39.6764V4.59459H29.7194V16.8293H24.6649ZM59.2477 11.4495H52.1975V16.8293H47.1431V0.689878H59.2477C65.0614 0.689878 66.7751 2.98932 66.7751 5.93954V6.15647C66.7751 9.04162 65.018 11.4495 59.2477 11.4495ZM52.1975 4.35597V7.82682H59.1609C60.7445 7.82682 61.5038 7.24111 61.5038 6.13478V6.0697C61.5038 4.96336 60.7879 4.35597 59.1609 4.35597H52.1975ZM78.6296 10.2347L75.5058 4.18242L72.5122 10.2347H78.6296ZM82.0137 16.8293L80.4952 13.8791H70.7117L69.2583 16.8293H64.1171L72.2736 0.689878H78.8248L87.4586 16.8293H82.0137ZM88.2197 16.8293V0.689878H102.038C106.659 0.689878 107.938 2.46869 107.938 4.37766V4.68136C107.938 6.78556 106.16 7.5882 105.379 7.82682C106.485 8.10883 108.85 9.04162 108.85 11.8834V12.1871C108.85 14.7251 107.396 16.8293 102.168 16.8293H88.2197ZM101.17 4.09565H93.2741V6.72049H101.17C102.58 6.72049 102.927 6.0697 102.927 5.41892V5.37553C102.927 4.70305 102.58 4.09565 101.17 4.09565ZM101.604 10.148H93.2741V13.3151H101.604C103.274 13.3151 103.6 12.3823 103.6 11.7315V11.6448C103.6 10.9506 103.274 10.148 101.604 10.148ZM122.926 10.2347L119.802 4.18242L116.809 10.2347H122.926ZM126.31 16.8293L124.792 13.8791H115.008L113.555 16.8293H108.414L116.57 0.689878H123.121L131.755 16.8293H126.31ZM152.118 10.2347L148.995 4.18242L146.001 10.2347H152.118ZM155.502 16.8293L153.984 13.8791H144.2L142.747 16.8293H137.606L145.762 0.689878H152.314L160.947 16.8293H155.502ZM161.835 0.689878H167.476L177.78 10.8421V0.689878H182.769V16.8293H177.78L166.825 6.13478V16.8293H161.835V0.689878ZM185.244 16.8293V0.689878H195.939C205.288 0.689878 207.328 4.70305 207.328 8.32575V8.97654C207.328 12.4474 205.397 16.8293 195.961 16.8293H185.244ZM190.299 4.50782V12.9463H195.548C201.275 12.9463 202.034 10.43 202.034 8.7813V8.65115C202.034 7.00249 201.362 4.50782 195.548 4.50782H190.299ZM214.027 16.8293V10.5818L205.393 0.689878H211.662L216.673 6.63371L221.771 0.689878H227.476L219.081 10.5818V16.8293H214.027Z" fill="white"/>
</svg>
