<svg viewBox="0 0 22 15" xmlns="http://www.w3.org/2000/svg">
    <path d="M10.7667 4.40455C11.5454 4.40455 12.2923 4.71391 12.843 5.26459C13.3937 5.81526 13.703 6.56214 13.703 7.34091C13.703 8.11968 13.3937 8.86656 12.843 9.41723C12.2923 9.96791 11.5454 10.2773 10.7667 10.2773C9.98789 10.2773 9.24102 9.96791 8.69034 9.41723C8.13967 8.86656 7.8303 8.11968 7.8303 7.34091C7.8303 6.56214 8.13967 5.81526 8.69034 5.26459C9.24102 4.71391 9.98789 4.40455 10.7667 4.40455ZM10.7667 0C15.6606 0 19.84 3.04403 21.5333 7.34091C19.84 11.6378 15.6606 14.6818 10.7667 14.6818C5.87273 14.6818 1.6933 11.6378 0 7.34091C1.6933 3.04403 5.87273 0 10.7667 0ZM2.13376 7.34091C2.92487 8.95621 4.1533 10.3172 5.6794 11.269C7.2055 12.2209 8.96804 12.7255 10.7667 12.7255C12.5653 12.7255 14.3278 12.2209 15.8539 11.269C17.38 10.3172 18.6085 8.95621 19.3996 7.34091C18.6085 5.72561 17.38 4.36466 15.8539 3.41278C14.3278 2.46091 12.5653 1.95628 10.7667 1.95628C8.96804 1.95628 7.2055 2.46091 5.6794 3.41278C4.1533 4.36466 2.92487 5.72561 2.13376 7.34091Z" />
</svg>
