<svg viewBox="0 0 12 21" xmlns="http://www.w3.org/2000/svg">
<path d="M0.792189 1.68725C0.70197 1.59178 0.631441 1.47947 0.584625 1.35674C0.537809 1.23401 0.515625 1.10327 0.51934 0.971965C0.523054 0.840663 0.552594 0.711378 0.606273 0.591492C0.659951 0.471606 0.736717 0.363467 0.832189 0.273249C0.92766 0.183031 1.03997 0.112501 1.16269 0.0656852C1.28542 0.0188697 1.41617 -0.00331434 1.54747 0.000400002C1.67877 0.00411435 1.80806 0.0336542 1.92795 0.0873329C2.04783 0.141012 2.15597 0.217778 2.24619 0.313249L10.7462 9.31325C10.9217 9.49892 11.0195 9.74474 11.0195 10.0002C11.0195 10.2558 10.9217 10.5016 10.7462 10.6872L2.24619 19.6882C2.15657 19.7858 2.04845 19.8646 1.92812 19.92C1.8078 19.9754 1.67766 20.0064 1.54526 20.0111C1.41287 20.0158 1.28086 19.9942 1.1569 19.9474C1.03295 19.9007 0.919512 19.8298 0.823192 19.7388C0.726871 19.6479 0.649583 19.5387 0.595817 19.4176C0.54205 19.2965 0.512878 19.166 0.509994 19.0335C0.507109 18.9011 0.53057 18.7694 0.579014 18.6461C0.627458 18.5228 0.699919 18.4103 0.792189 18.3153L8.64419 10.0002L0.792189 1.68725Z" fill="#F1F1F1"/>
</svg>
