<svg viewBox="0 0 18 20" xmlns="http://www.w3.org/2000/svg">
    <path d="M14.5 19.1667C13.7361 19.1667 13.0868 18.8993 12.5521 18.3646C12.0174 17.8299 11.75 17.1806 11.75 16.4167C11.75 16.3098 11.7576 16.1988 11.7729 16.084C11.7882 15.9691 11.8111 15.8661 11.8417 15.775L5.37917 12.0167C5.11944 12.2459 4.82917 12.4255 4.50833 12.5557C4.1875 12.6859 3.85139 12.7507 3.5 12.75C2.73611 12.75 2.08681 12.4827 1.55208 11.948C1.01736 11.4132 0.75 10.7639 0.75 10C0.75 9.23615 1.01736 8.58685 1.55208 8.05212C2.08681 7.5174 2.73611 7.25004 3.5 7.25004C3.85139 7.25004 4.1875 7.31512 4.50833 7.44529C4.82917 7.57546 5.11944 7.75482 5.37917 7.98337L11.8417 4.22504C11.8111 4.13337 11.7882 4.0304 11.7729 3.91612C11.7576 3.80185 11.75 3.69093 11.75 3.58337C11.75 2.81949 12.0174 2.17018 12.5521 1.63546C13.0868 1.10074 13.7361 0.833374 14.5 0.833374C15.2639 0.833374 15.9132 1.10074 16.4479 1.63546C16.9826 2.17018 17.25 2.81949 17.25 3.58337C17.25 4.34726 16.9826 4.99657 16.4479 5.53129C15.9132 6.06601 15.2639 6.33337 14.5 6.33337C14.1486 6.33337 13.8125 6.2686 13.4917 6.13904C13.1708 6.00949 12.8806 5.82982 12.6208 5.60004L6.15833 9.35837C6.18889 9.45004 6.21181 9.55332 6.22708 9.66821C6.24236 9.7831 6.25 9.89371 6.25 10C6.25 10.1064 6.24236 10.2173 6.22708 10.3328C6.21181 10.4483 6.18889 10.5513 6.15833 10.6417L12.6208 14.4C12.8806 14.1709 13.1708 13.9915 13.4917 13.862C13.8125 13.7324 14.1486 13.6673 14.5 13.6667C15.2639 13.6667 15.9132 13.9341 16.4479 14.4688C16.9826 15.0035 17.25 15.6528 17.25 16.4167C17.25 17.1806 16.9826 17.8299 16.4479 18.3646C15.9132 18.8993 15.2639 19.1667 14.5 19.1667Z" fill="#E9E9E9"/>
</svg>
