<svg width="16" height="16" viewBox="0 0 16 16" fill="none" xmlns="http://www.w3.org/2000/svg">
<g clip-path="url(#clip0_16_28)">
<path d="M15.0266 4.27999C14.9475 3.9636 14.7862 3.6737 14.5591 3.43959C14.332 3.20548 14.0471 3.03545 13.7333 2.94666C12.5866 2.66666 7.99998 2.66666 7.99998 2.66666C7.99998 2.66666 3.41331 2.66666 2.26664 2.97332C1.95281 3.06211 1.66796 3.23215 1.44087 3.46626C1.21378 3.70037 1.0525 3.99026 0.973308 4.30666C0.763451 5.47036 0.660798 6.65086 0.666641 7.83332C0.65916 9.02468 0.761819 10.2142 0.973308 11.3867C1.06061 11.6932 1.22551 11.9721 1.45207 12.1963C1.67863 12.4205 1.95919 12.5825 2.26664 12.6667C3.41331 12.9733 7.99998 12.9733 7.99998 12.9733C7.99998 12.9733 12.5866 12.9733 13.7333 12.6667C14.0471 12.5779 14.332 12.4078 14.5591 12.1737C14.7862 11.9396 14.9475 11.6497 15.0266 11.3333C15.2349 10.1784 15.3375 9.00688 15.3333 7.83332C15.3408 6.64196 15.2381 5.45245 15.0266 4.27999Z" fill="white" stroke="white" stroke-width="2" stroke-linecap="round" stroke-linejoin="round"/>
<path d="M6.5 10.0133L10.3333 7.83332L6.5 5.65332V10.0133Z" fill="#0F0F0F" stroke="#0F0F0F" stroke-width="2" stroke-linecap="round" stroke-linejoin="round"/>
</g>
<defs>
<clipPath id="clip0_16_28">
<rect width="16" height="16" fill="white"/>
</clipPath>
</defs>
</svg>
