<?xml version="1.0" standalone="no"?>
<!DOCTYPE svg PUBLIC "-//W3C//DTD SVG 20010904//EN"
 "http://www.w3.org/TR/2001/REC-SVG-20010904/DTD/svg10.dtd">
<svg version="1.0" xmlns="http://www.w3.org/2000/svg"
 width="180.000000pt" height="180.000000pt" viewBox="0 0 180.000000 180.000000"
 preserveAspectRatio="xMidYMid meet">
<metadata>
Created by potrace 1.14, written by Peter Selinger 2001-2017
</metadata>
<g transform="translate(0.000000,180.000000) scale(0.100000,-0.100000)"
fill="#000000" stroke="none">
<path d="M0 900 l0 -900 900 0 900 0 0 900 0 900 -900 0 -900 0 0 -900z m785
530 c191 -31 309 -117 322 -234 l6 -46 -112 0 -111 0 -43 44 c-53 55 -101 70
-227 70 -104 1 -155 -12 -201 -51 -42 -36 -59 -74 -59 -133 0 -128 95 -200
265 -200 104 0 171 23 222 76 l43 44 219 0 219 0 186 -348 c102 -192 186 -352
186 -355 0 -4 -51 -7 -114 -7 l-114 0 -34 63 -35 62 -214 3 -215 2 -32 -65
-32 -65 -110 0 c-60 0 -110 2 -110 5 0 3 52 106 115 229 l115 223 -77 -18
c-99 -24 -328 -26 -421 -4 -130 31 -213 89 -264 187 -30 59 -38 223 -14 296
39 116 168 203 331 225 62 8 252 6 310 -3z"/>
<path d="M1122 714 c-34 -68 -62 -126 -62 -129 0 -3 59 -5 131 -5 l131 0 -67
128 c-37 70 -68 128 -69 129 -1 1 -30 -54 -64 -123z"/>
</g>
</svg>
